<?xml version="1.0" encoding="UTF-8"?>
<svg xmlns="http://www.w3.org/2000/svg" viewBox="0 0 24 24" width="512" height="512">
  <path d="M23,9.32a1,1,0,0,0-.29-.71L12,1.29a1,1,0,0,0-1.42,0L.29,8.61A1,1,0,0,0,.29,10L2,11.73V19a3,3,0,0,0,3,3H19a3,3,0,0,0,3-3V11.73L23.71,10A1,1,0,0,0,23,9.32ZM15,20H13V17a1,1,0,0,0-2,0v3H9V12.74l3-2.25,3,2.25ZM20,19a1,1,0,0,1-1,1H17V12a1,1,0,0,0-.42-.81l-4-3a1,1,0,0,0-1.16,0l-4,3A1,1,0,0,0,7,12v8H5a1,1,0,0,1-1-1V10.32l7-5.25,7,5.25V19Z" fill="#4a6bff"/>
  <path d="M18,10h1a1,1,0,0,0,0-2H18a1,1,0,0,0,0,2Z" fill="#4a6bff"/>
</svg>